<?xml version="1.0"?>
<svg width="122.88" height="122.88" xmlns="http://www.w3.org/2000/svg" xmlns:svg="http://www.w3.org/2000/svg" enable-background="new 0 0 122.88 122.88" version="1.1" xml:space="preserve">
 <style type="text/css">.st0{fill-rule:evenodd;clip-rule:evenodd;}</style>

 <g class="layer">
  <title>Layer 1</title>
  <g id="svg_1">
   <path class="st0" d="m61.44,0c33.93,0 61.44,27.51 61.44,61.44c0,33.93 -27.51,61.44 -61.44,61.44s-61.44,-27.51 -61.44,-61.44c0,-33.93 27.51,-61.44 61.44,-61.44l0,0zm-0.27,61.6c1.76,0 3.18,1.42 3.18,3.18c0,1.76 -1.42,3.18 -3.18,3.18c-1.76,0 -3.18,-1.42 -3.18,-3.18c0,-1.75 1.43,-3.18 3.18,-3.18l0,0zm0.03,-8.32c6.34,0 11.47,5.14 11.47,11.47c0,6.34 -5.14,11.47 -11.47,11.47c-6.33,0 -11.47,-5.14 -11.47,-11.47c0,-6.34 5.14,-11.47 11.47,-11.47l0,0zm-46.42,-8.71c4.45,-12.31 13.52,-22.7 24.9,-28.01c15.63,-7.29 34.61,-7.75 50.69,4.15c9.48,7.01 12.94,12.76 17.67,22.95c3.58,9.03 0.64,11.97 -10.87,6.9c-23.79,-11.77 -47.84,-11.24 -72.12,0c-8.96,5.85 -13.99,0.97 -10.27,-5.99l0,0zm61.12,64.48c16.62,-5.23 26.32,-15.81 32.27,-29.3c3.87,-10.43 -8.26,-13.97 -12.52,-7.1c-2.55,5.06 -5.59,9.4 -9.55,12.77c-6.2,5.27 -15.18,6.23 -16.58,16.16c-0.73,5.16 0.45,9.8 6.38,7.47l0,0zm-28.64,0c-16.62,-5.23 -26.32,-15.81 -32.27,-29.3c-3.87,-10.43 8.26,-13.97 12.52,-7.1c2.55,5.06 5.59,9.4 9.55,12.77c6.2,5.27 15.18,6.23 16.58,16.16c0.73,5.16 -0.45,9.8 -6.38,7.47l0,0z" id="svg_2"/>
  </g>
 </g>
</svg>